<?xml version="1.0" encoding="UTF-8"?>
<svg version="1.1" xmlns="http://www.w3.org/2000/svg" width="387" height="472">
<path d="M0 0 C1.14726562 0.64453125 2.29453125 1.2890625 3.4765625 1.953125 C11.64077423 6.58462551 18.91784161 11.81390738 26 18 C26.56178955 18.43723389 27.1235791 18.87446777 27.70239258 19.32495117 C32.30224529 22.99160792 35.04629079 26.70608175 37.6875 31.9375 C38.0705127 32.68185303 38.45352539 33.42620605 38.84814453 34.19311523 C43.00678611 42.578967 45.18125322 51.13256083 46.7578125 60.3515625 C46.88365723 61.07529053 47.00950195 61.79901855 47.13916016 62.54467773 C47.48048292 64.57159917 47.78815411 66.60410396 48.09375 68.63671875 C49.12949611 72.48058687 49.77011115 73.71344377 53 76 C55.89841445 77.25309373 58.87382501 78.21203684 61.875 79.1875 C80.24385899 85.59641989 95.98934989 97.8229939 107 114 C108.04542491 116.31333768 109.0432428 118.64860465 110 121 C110.57450403 122.20929248 111.15931032 123.41374015 111.75390625 124.61328125 C115.20443733 131.64283559 118.09134465 138.11880564 119 146 C118.34 146.33 117.68 146.66 117 147 C116.56429687 146.09378906 116.12859375 145.18757812 115.6796875 144.25390625 C112.51360112 137.75194619 109.30634817 131.56129824 105.06640625 125.671875 C104 124 104 124 104 122 C103.443125 121.938125 102.88625 121.87625 102.3125 121.8125 C99.72648913 120.90390159 98.45835871 119.6154702 96.59765625 117.65234375 C90.07846592 110.91000265 83.27978988 105.39585618 75 101 C74.07380859 100.5062085 74.07380859 100.5062085 73.12890625 100.00244141 C71.05161298 98.90348947 68.96562837 97.82335036 66.875 96.75 C66.21806152 96.40831787 65.56112305 96.06663574 64.88427734 95.71459961 C60.33083738 93.43105458 55.97860901 92.08664517 51 91 C50.96036133 91.68288086 50.92072266 92.36576172 50.87988281 93.06933594 C49.68128383 112.83628593 47.97971161 131.68349274 40 150 C39.63261719 150.92039063 39.26523438 151.84078125 38.88671875 152.7890625 C35.91480959 160.20351629 32.49501524 167.39485185 29.03417969 174.59033203 C28.65680664 175.37649902 28.27943359 176.16266602 27.890625 176.97265625 C27.55063477 177.67656494 27.21064453 178.38047363 26.86035156 179.10571289 C25.89170375 181.15091313 25.89170375 181.15091313 25 184 C25.61875 183.46375 26.2375 182.9275 26.875 182.375 C29.45043686 180.41766799 31.88744498 178.89552323 34.6875 177.3125 C42.70732081 172.5670439 48.99910654 166.03896987 55.5 159.4375 C69.84385793 144.95101848 69.84385793 144.95101848 79.8125 144.625 C83.87475775 144.64467195 86.51199756 144.74165651 89.6875 147.375 C93.56158212 151.77260673 93.34468275 154.98575936 93.26953125 160.7109375 C92.43403015 170.90647265 87.12932529 178.14597279 81 186 C80.34 186.99 79.68 187.98 79 189 C93.91503686 185.4960037 101.84058525 177.75672376 110 165 C117.21184559 152.9215491 120.3572803 142.47549504 121.76757812 128.47265625 C123.67030172 111.04328767 123.67030172 111.04328767 129.0625 104.4375 C129.56910156 103.79683594 130.07570313 103.15617187 130.59765625 102.49609375 C133.35535353 99.55403788 136.13859848 99.78501055 140.02734375 99.57421875 C142 100 142 100 143.73828125 101.48046875 C145.56744387 105.13313096 145.3575128 108.63803302 145.25 112.625 C145.23976807 113.43461182 145.22953613 114.24422363 145.21899414 115.07836914 C145.13146339 120.00729022 144.75740889 124.8337971 144.15625 129.7265625 C143.91586612 133.2241479 144.3645172 136.61127335 144.7265625 140.08984375 C145.58042325 149.1773617 145.17569782 156.70538247 142.19921875 165.36328125 C141.05114466 168.84490007 140.12270106 172.31671957 139.23510742 175.87036133 C136.81490883 185.55793496 133.69670154 194.73346932 130 204 C129.41798828 205.63775391 129.41798828 205.63775391 128.82421875 207.30859375 C124.34585284 219.38940902 116.9270544 226.13293379 105.72265625 231.8203125 C103 233 103 233 101 233 C102.83405975 228.33148427 106.21509505 226.05263625 110.4375 223.5625 C116.61182598 219.8069731 116.61182598 219.8069731 120.1875 213.75 C120.455625 212.5125 120.72375 211.275 121 210 C121.42746654 208.64528078 121.87426436 207.29657195 122.3359375 205.953125 C132.62055821 177.22651429 132.62055821 177.22651429 135.87890625 147.21875 C135.83056641 145.96449219 135.78222656 144.71023437 135.73242188 143.41796875 C135.67634766 142.12503906 135.62027344 140.83210937 135.5625 139.5 C135.45861021 136.92712453 135.35571397 134.3542087 135.25390625 131.78125 C135.20564697 130.64751953 135.1573877 129.51378906 135.10766602 128.34570312 C134.99661372 124.89477192 134.98218964 121.45247026 135 118 C134.89977539 118.81041748 134.79955078 119.62083496 134.69628906 120.45581055 C134.3103423 123.53047597 133.91385943 126.60356765 133.51074219 129.67602539 C133.25711351 131.63262342 133.01510626 133.5907169 132.7734375 135.54882812 C131.27335885 146.88596101 129.053811 157.88192197 122.8125 167.625 C122.42521729 168.24761719 122.03793457 168.87023437 121.63891602 169.51171875 C114.40662742 180.88946814 106.0055924 190.65742288 94 197 C93.113125 197.556875 92.22625 198.11375 91.3125 198.6875 C85.70640283 201.86933893 78.8748505 201.82706893 72.67578125 200.50390625 C69.43298474 199.44295434 67.24725861 198.26973667 64.9375 195.75 C63.68248284 192.06861632 63.56295369 189.5660038 65 186 C68.03663102 181.19660184 71.5232574 176.77369628 75.15625 172.41015625 C78.85258616 167.57829309 80.25186922 161.98504626 81 156 C74.77238148 158.60427683 70.8644212 161.83046608 66.22265625 166.703125 C64.20715096 168.78593187 62.14066922 170.68269221 59.9375 172.5625 C57.13189376 174.9569877 54.55265015 177.46287947 52 180.125 C47.39748854 184.78155269 42.67488369 188.05382312 36.48828125 190.2421875 C32.24079229 192.38257948 31.27213576 194.0612003 29.25 198.3125 C28.9605249 198.9204541 28.6710498 199.5284082 28.37280273 200.15478516 C25.48903678 206.5306306 24.10112444 213.09962018 23 220 C23.88042969 219.65066406 24.76085937 219.30132812 25.66796875 218.94140625 C26.82941406 218.48636719 27.99085938 218.03132812 29.1875 217.5625 C30.33605469 217.11003906 31.48460937 216.65757812 32.66796875 216.19140625 C43.78117323 212.21775166 58.02860991 212.57706069 69 217 C72.60802443 219.03543069 75.78400187 221.39786638 79 224 C79.721875 224.52464844 80.44375 225.04929687 81.1875 225.58984375 C87.65253285 230.59779533 91.53206143 237.3266158 93.578125 245.234375 C94.10797781 251.25542964 90.56582153 255.56196313 87 260 C79.81263772 268.38525599 70.9688007 273.66413489 60 275 C45.95703171 275.80963435 45.95703171 275.80963435 39.63623047 274.51635742 C36.68421608 273.93814753 33.81864373 273.72040117 30.81640625 273.53515625 C29.64142578 273.45716797 28.46644531 273.37917969 27.25585938 273.29882812 C24.79775635 273.14154073 22.33941837 272.98788229 19.88085938 272.83789062 C18.70458984 272.75861328 17.52832031 272.67933594 16.31640625 272.59765625 C15.24849854 272.53070557 14.18059082 272.46375488 13.08032227 272.39477539 C9.84816019 271.98054015 7.05032973 271.12711556 4 270 C4.33 268.68 4.66 267.36 5 266 C6.98 265.67 8.96 265.34 11 265 C10.33613281 264.5875 9.67226562 264.175 8.98828125 263.75 C2.04026492 259.20589589 -2.35162086 254.94513742 -5 247 C-5.61746294 237.99111447 -5.93345082 229.92876024 -1 222 C-0.67 222 -0.34 222 0 222 C-0.2165625 223.6396875 -0.2165625 223.6396875 -0.4375 225.3125 C-0.52257812 226.0446875 -0.60765625 226.776875 -0.6953125 227.53125 C-0.90417509 229.22357255 -1.15100399 230.91151497 -1.4296875 232.59375 C-2.57045568 240.69553216 -1.1570908 247.23341193 3.39453125 254.10546875 C6.48003865 257.9236824 9.90115692 260.36502945 14 263 C14 263.66 14 264.32 14 265 C14.66 265 15.32 265 16 265 C15.67 263.68 15.34 262.36 15 261 C15.99 261 16.98 261 18 261 C17.01 258.03 16.02 255.06 15 252 C19 253 19 253 21 254 C21.66 252.02 22.32 250.04 23 248 C23.66 248 24.32 248 25 248 C25.495 252.95 25.495 252.95 26 258 C26.99 258 27.98 258 29 258 C29.495 259.485 29.495 259.485 30 261 C30.66 261 31.32 261 32 261 C32.144375 261.598125 32.28875 262.19625 32.4375 262.8125 C32.8872439 264.56150404 33.42892341 266.28677023 34 268 C46.30420525 272.317265 60.08597798 269.74874727 71.5625 264.3125 C75.39007625 262.03205153 78.28709098 258.85397671 81.30078125 255.609375 C83 254 83 254 85 254 C85.50697875 247.00087673 85.16339056 242.73872753 81 237 C73.8022387 228.85516485 65.6582625 225.36657978 54.9296875 224.67578125 C43.40035762 224.23594903 33.09804218 225.81679824 23.86328125 233.2734375 C21.77208326 235.21119329 19.87198957 237.28146062 17.9375 239.375 C15.06633258 242.33677625 14.35900257 242.936306 10.125 243.6875 C7 243 7 243 5 240 C5.09657077 234.78517861 6.39901064 230.81162365 8.375 226 C11.4147588 218.50192828 12.74484599 210.94930875 14 203 C13.38125 203.99 12.7625 204.98 12.125 206 C11.42375 206.99 10.7225 207.98 10 209 C9.34 209 8.68 209 8 209 C8.63981945 204.94156951 9.94544012 201.59720045 11.66015625 197.87109375 C12.20309326 196.68008057 12.74603027 195.48906738 13.30541992 194.26196289 C13.73617325 193.32491013 13.73617325 193.32491013 14.17562866 192.368927 C18.54726221 182.84839034 22.82116993 173.30154758 26.6875 163.5625 C27.15845093 162.37708618 27.15845093 162.37708618 27.63891602 161.16772461 C30.14149412 154.78422539 32.05940024 148.81934828 33 142 C33.3400708 140.78771729 33.6801416 139.57543457 34.03051758 138.32641602 C35.16350939 133.865497 35.18488911 129.72874034 35.01171875 125.15234375 C34.97773735 123.92905113 34.97773735 123.92905113 34.94306946 122.68104553 C34.89344057 120.96908961 34.83853356 119.2572792 34.77856445 117.5456543 C34.68763843 114.94146464 34.61291387 112.33719969 34.54101562 109.73242188 C34.49052752 108.05986707 34.43912608 106.38733952 34.38671875 104.71484375 C34.36373215 103.94486557 34.34074554 103.17488739 34.31706238 102.38157654 C34.15424387 97.85212889 33.7205928 93.4755135 33 89 C12.57532168 89.38471141 -8.89440012 98.12092319 -24 112 C-24.64453125 112.55429688 -25.2890625 113.10859375 -25.953125 113.6796875 C-41.84255194 128.25542166 -50.22150605 149.79355097 -51.24609375 171.0703125 C-51.82350614 192.61841074 -46.03361055 213.10605058 -32.44921875 230.11328125 C-30.89019944 232.14294789 -29.58944542 234.25761824 -28.25 236.4375 C-23.37432896 243.85365227 -16.39843215 249.25741529 -9 254 C-8.67 254.66 -8.34 255.32 -8 256 C-12.75545679 255.46767275 -16.02777019 254.13431115 -20.125 251.6875 C-21.13820312 251.09324219 -22.15140625 250.49898437 -23.1953125 249.88671875 C-25.82695278 248.1164092 -27.79127273 246.25426803 -30 244 C-31.37395675 243.09103435 -32.77099792 242.21612874 -34.1875 241.375 C-47.60282539 232.55607298 -55.56412171 217.70434352 -61 203 C-61.36125977 202.03497559 -61.72251953 201.06995117 -62.09472656 200.07568359 C-64.96454385 191.70069392 -65.47195683 184.42296595 -65 175.625 C-64.94166992 174.3251416 -64.88333984 173.0252832 -64.82324219 171.68603516 C-63.9801112 155.98416418 -62.6881024 139.03726563 -55 125 C-54.52046875 124.12085938 -54.0409375 123.24171875 -53.546875 122.3359375 C-41.05623258 101.29587479 -20.78728926 83.55724893 3.13012695 77.28198242 C10.51193035 75.42951788 17.78531204 73.83267551 25.4375 73.9375 C26.30246094 73.94652344 27.16742188 73.95554687 28.05859375 73.96484375 C28.69925781 73.97644531 29.33992188 73.98804688 30 74 C26.03900221 62.81806819 19.5830745 45.02423873 8.7578125 38.6875 C8.17773438 38.460625 7.59765625 38.23375 7 38 C7.86625 38.9075 8.7325 39.815 9.625 40.75 C15.88781967 48.00951544 20.4298711 57.25820327 20.2734375 66.91015625 C20 69 20 69 18.4375 70.9375 C4.88970887 76.84294741 -9.42332989 75.86545903 -23 71 C-26.59532257 69.29548179 -29.79533948 67.35131222 -33 65 C-33.56976563 64.59910156 -34.13953125 64.19820313 -34.7265625 63.78515625 C-39.01390695 60.52017856 -41.98524417 56.3974634 -45 52 C-45.54527344 51.20851562 -46.09054688 50.41703125 -46.65234375 49.6015625 C-51.435787 42.37758698 -55.30372474 34.76619256 -59.02880859 26.95947266 C-59.70207151 25.60109956 -60.41666762 24.26273806 -61.16259766 22.94287109 C-62.99168327 19.63858987 -63.98927153 17.56190381 -64.0625 13.7265625 C-61.6359586 7.49962905 -53.50578122 4.6135004 -47.75 1.8125 C-33.49955644 -4.00349375 -13.95769123 -8.86051389 0 0 Z " fill="#F1592A" transform="translate(133,58)"/>
<path d="M0 0 C17.62640439 3.27447038 31.14309975 7.53094739 43 22 C50.07683766 32.46074038 53.4098138 46.86986984 51.63671875 59.453125 C49.54785438 67.8085825 45.08428947 75.13549714 40 82 C39.38125 82.845625 38.7625 83.69125 38.125 84.5625 C34.81708165 86.80020947 31.78797917 86.63783842 28 86 C17.22653127 82.95606756 10.28921315 77.50391003 4.6015625 67.93359375 C-4.94017564 50.45592219 -4.71318626 35.16695678 -3.125 15.75 C-3.04668945 14.76177246 -2.96837891 13.77354492 -2.88769531 12.75537109 C-2.80358398 11.82031738 -2.71947266 10.88526367 -2.6328125 9.921875 C-2.55949707 9.09268555 -2.48618164 8.26349609 -2.41064453 7.40917969 C-1.95527976 4.73763416 -1.08488966 2.47643851 0 0 Z " fill="#F1592A" transform="translate(154,0)"/>
<path d="M0 0 C0.81722752 10.26074556 -1.51813168 20.02581253 -8.17578125 28.05859375 C-14.4696262 34.75675422 -20.32274096 39.86315049 -29 43 C-30.08152344 43.43183594 -31.16304687 43.86367187 -32.27734375 44.30859375 C-39.15545128 47.03972081 -45.03564849 49.12378843 -52.484375 49.1328125 C-53.50144531 49.13410156 -54.51851562 49.13539063 -55.56640625 49.13671875 C-56.61699219 49.13285156 -57.66757813 49.12898438 -58.75 49.125 C-59.81605469 49.12886719 -60.88210937 49.13273437 -61.98046875 49.13671875 C-62.99238281 49.13542969 -64.00429687 49.13414062 -65.046875 49.1328125 C-65.97338867 49.13168457 -66.89990234 49.13055664 -67.85449219 49.12939453 C-70 49 -70 49 -71 48 C-71.68005767 37.67162419 -65.94344352 30.34809044 -59.5625 22.8125 C-58.716875 21.884375 -57.87125 20.95625 -57 20 C-62.24643795 24.28280649 -66.68029821 28.79230812 -71 34 C-72.01126953 35.19689453 -72.01126953 35.19689453 -73.04296875 36.41796875 C-77.37246907 41.65723274 -80.94779829 46.92494467 -84 53 C-88.13929827 46.79105259 -86.82039995 36.12957139 -85.66162109 28.88427734 C-83.50046759 19.18478544 -78.65522464 13.90680914 -71 8 C-69.72478049 6.77538444 -68.45366531 5.54647466 -67.1875 4.3125 C-49.91526935 -10.69165996 -19.19611634 -11.35300786 0 0 Z M-55 17 C-55.33 17.66 -55.66 18.32 -56 19 C-55.01 18.67 -54.02 18.34 -53 18 C-53.66 17.67 -54.32 17.34 -55 17 Z " fill="#F1592A" transform="translate(271,79)"/>
<path d="M0 0 C2.64 0 5.28 0 8 0 C12.29 13.2 16.58 26.4 21 40 C22.4025 35.813125 23.805 31.62625 25.25 27.3125 C25.68344727 26.02126221 26.11689453 24.73002441 26.56347656 23.3996582 C29.15823009 15.63362911 31.62927596 7.83728669 34 0 C36.64 0 39.28 0 42 0 C43.69731364 8.17915837 45.39250516 16.3587524 47.08496857 24.53891563 C47.8708636 28.33703454 48.65749636 32.13499756 49.44580078 35.93261719 C50.20613948 39.59564835 50.96455898 43.25907202 51.72163391 46.92277908 C52.01120799 48.32239643 52.30148027 49.7218695 52.592453 51.12119675 C52.99901514 53.07699974 53.40289356 55.03336003 53.80664062 56.98974609 C54.03758423 58.1044931 54.26852783 59.21924011 54.50646973 60.36776733 C55 63 55 63 55 65 C51.04 65 47.08 65 43 65 C41.5995698 61.00695181 40.52407816 57.09660955 39.7109375 52.9453125 C39.49179687 51.83671875 39.27265625 50.728125 39.046875 49.5859375 C38.82515625 48.44382812 38.6034375 47.30171875 38.375 46.125 C38.03082031 44.37703125 38.03082031 44.37703125 37.6796875 42.59375 C37.11629407 39.72983342 36.55651547 36.86525963 36 34 C35.67201416 34.89831543 35.34402832 35.79663086 35.00610352 36.72216797 C33.79033413 40.05105428 32.57301535 43.37937221 31.35522461 46.70751953 C30.82810783 48.14877076 30.30141288 49.59017633 29.77514648 51.03173828 C29.01917261 53.10229443 28.26168965 55.17229303 27.50390625 57.2421875 C27.26845596 57.88807831 27.03300568 58.53396912 26.79042053 59.19943237 C25.94032069 61.51809859 25.10544695 63.7891061 24 66 C22.02 66 20.04 66 18 66 C12.555 50.655 12.555 50.655 7 35 C6.67 35 6.34 35 6 35 C4.02 44.9 2.04 54.8 0 65 C-3.96 65 -7.92 65 -12 65 C-11.35932077 57.19072578 -10.06499411 49.66473065 -8.49609375 41.9921875 C-8.2533522 40.7855545 -8.01061066 39.57892151 -7.76051331 38.33572388 C-6.99071924 34.51454872 -6.21421926 30.69477285 -5.4375 26.875 C-4.91111705 24.27103262 -4.38626947 21.66675872 -3.86132812 19.0625 C-2.57931252 12.70729504 -1.29180116 6.35322269 0 0 Z " fill="#056839" transform="translate(19,344)"/>
<path d="M0 0 C5.34917677 3.26894136 8.93847174 7.94795273 10.9296875 13.91015625 C13.15291708 24.70137058 11.36617208 33.06106273 5.6875 42.1875 C0.4574187 47.27230127 -4.27013411 48.6485775 -11.5625 48.875 C-18.52885623 48.64427666 -23.21447754 47.54285982 -28.3046875 42.7265625 C-34.40538433 36.04206693 -35.43792879 29.25353014 -35.5625 20.375 C-35.07148076 13.39161526 -32.37748673 8.40626273 -27.5625 3.375 C-20.19323707 -2.76901199 -8.78031892 -4.05374877 0 0 Z M-18.5625 10.375 C-22.89580009 15.32734295 -22.85008284 20.0168991 -22.7734375 26.35546875 C-22.48177193 30.53060736 -21.82182276 32.83539434 -19.5625 36.375 C-16.34393803 38.66375518 -14.44391866 39.375 -10.5 39.375 C-6.65184475 38.0649897 -5.03579584 36.60402512 -2.5625 33.375 C0.04183137 26.39065679 0.13487331 19.36382727 -2.8125 12.4375 C-4.86896184 10.01381283 -6.67989011 8.71084361 -9.5625 7.375 C-13.91522557 7.375 -15.12290113 7.9055444 -18.5625 10.375 Z " fill="#056839" transform="translate(223.5625,361.625)"/>
<path d="M0 0 C4.02320958 3.25280775 6.3049508 6.47735241 7.9375 11.375 C8.02257079 14.1065956 8.05341565 16.81191443 8.03515625 19.54296875 C8.0337413 20.33778152 8.03232635 21.1325943 8.03086853 21.95149231 C8.02527378 24.48853325 8.01272228 27.02548575 8 29.5625 C7.99498432 31.28320185 7.99042153 33.00390508 7.98632812 34.72460938 C7.97530607 38.9414403 7.95804506 43.15820516 7.9375 47.375 C3.9775 47.375 0.0175 47.375 -4.0625 47.375 C-4.07708252 46.40151611 -4.09166504 45.42803223 -4.10668945 44.42504883 C-4.16483296 40.79984524 -4.24206377 37.1752524 -4.32495117 33.55053711 C-4.35812532 31.98423199 -4.38618058 30.41780949 -4.40893555 28.85131836 C-4.44262116 26.59438237 -4.49494049 24.33851474 -4.55078125 22.08203125 C-4.55717117 21.38600296 -4.5635611 20.68997467 -4.57014465 19.97285461 C-4.69973779 15.64979773 -5.32859458 12.77116322 -8.0625 9.375 C-13.95100436 7.59733831 -15.24068684 8.46409342 -21.0625 11.375 C-21.3925 23.255 -21.7225 35.135 -22.0625 47.375 C-26.0225 47.375 -29.9825 47.375 -34.0625 47.375 C-34.0625 31.535 -34.0625 15.695 -34.0625 -0.625 C-31.0925 -0.625 -28.1225 -0.625 -25.0625 -0.625 C-24.4025 0.035 -23.7425 0.695 -23.0625 1.375 C-21.9796875 0.6325 -21.9796875 0.6325 -20.875 -0.125 C-14.85886875 -3.1187415 -5.96638444 -3.08650624 0 0 Z " fill="#056839" transform="translate(338.0625,361.625)"/>
<path d="M0 0 C1.15371094 -0.00257813 2.30742187 -0.00515625 3.49609375 -0.0078125 C6.5625 0.125 6.5625 0.125 9.5625 1.125 C9.0645163 4.85987777 8.68758244 6.93737635 6.5625 10.125 C4.55310002 10.09259032 2.54349501 10.05727296 0.53515625 9.984375 C-1.65935208 9.97251671 -1.65935208 9.97251671 -3.875 11.8125 C-5.56334648 14.31125279 -6.10666395 16.14747554 -6.4375 19.125 C-3.1375 19.125 0.1625 19.125 3.5625 19.125 C3.5625 22.095 3.5625 25.065 3.5625 28.125 C0.2625 28.125 -3.0375 28.125 -6.4375 28.125 C-6.4375 40.995 -6.4375 53.865 -6.4375 67.125 C-10.3975 67.125 -14.3575 67.125 -18.4375 67.125 C-18.4375 54.255 -18.4375 41.385 -18.4375 28.125 C-20.7475 28.125 -23.0575 28.125 -25.4375 28.125 C-25.4375 25.155 -25.4375 22.185 -25.4375 19.125 C-23.1275 19.125 -20.8175 19.125 -18.4375 19.125 C-18.355 17.92875 -18.2725 16.7325 -18.1875 15.5 C-17.47709418 9.91542092 -15.0151911 6.51487073 -10.8125 2.8125 C-6.94864587 0.06712996 -4.73837775 -0.01056494 0 0 Z " fill="#056839" transform="translate(264.4375,341.875)"/>
<path d="M0 0 C1.546875 0.99 1.546875 0.99 3.125 2 C3.125 5.99904969 1.39913033 7.80200422 -0.875 11 C-1.535 10.690625 -2.195 10.38125 -2.875 10.0625 C-7.96037818 8.26142856 -12.01720747 7.3339989 -17.1875 9.1875 C-20.91566525 11.70184401 -22.46094624 13.75783872 -23.875 18 C-24.37288768 24.09912403 -24.7778523 29.96406155 -20.875 35 C-15.46027734 38.29130201 -11.83720364 38.3683746 -5.875 37 C-4.51134717 36.04175747 -3.16705831 35.05278825 -1.875 34 C1.125 35 1.125 35 2.8125 37.875 C4.125 41 4.125 41 4.125 44 C-3.72240131 48.88282748 -11.96189516 48.89965782 -20.875 48 C-27.10614007 46.41644711 -31.40517484 42.31524173 -34.875 37 C-38.5419283 29.14046486 -38.81197361 20.14052469 -35.875 12 C-32.78649332 6.16615405 -28.22649147 1.37617108 -22.078125 -1.1484375 C-14.94303612 -3.04532698 -6.70675656 -3.37733098 0 0 Z " fill="#056839" transform="translate(140.875,362)"/>
<path d="M0 0 C0.68578125 -0.01998047 1.3715625 -0.03996094 2.078125 -0.06054688 C7.20654302 -0.05565335 10.04561909 1.25894199 14 4.4375 C19.62301415 10.19128192 22.07078609 15.78054176 22.5 23.75 C22.34052758 28.07568945 22.34052758 28.07568945 20 30.5625 C12.69657155 32.69266663 7.88779013 31.55372348 1.328125 27.9921875 C-4.20001337 24.30057832 -7.39520287 18.90684736 -11 13.4375 C-11.86625 12.7259375 -11.86625 12.7259375 -12.75 12 C-14.8302364 9.3997045 -14.18046859 6.62577837 -14 3.4375 C-9.29805309 0.6677594 -5.36737879 -0.05548982 0 0 Z " fill="#F1592A" transform="translate(115,246.5625)"/>
<path d="M0 0 C1.051875 -0.01417969 2.10375 -0.02835937 3.1875 -0.04296875 C6 0.1875 6 0.1875 9 2.1875 C7.35 5.1575 5.7 8.1275 4 11.1875 C2.618125 10.94 1.23625 10.6925 -0.1875 10.4375 C-3.86383233 10.01486652 -4.69884321 10.00555111 -8 12 C-11.38537177 15.70275038 -11.20347556 18.79368885 -11.31640625 23.6015625 C-11.33718735 24.33120209 -11.35796844 25.06084167 -11.37937927 25.81259155 C-11.44481917 28.14579763 -11.50373368 30.47911721 -11.5625 32.8125 C-11.60569053 34.39324095 -11.64930499 35.97397039 -11.69335938 37.5546875 C-11.80049481 41.43217504 -11.90177782 45.30977685 -12 49.1875 C-15.96 49.1875 -19.92 49.1875 -24 49.1875 C-24 33.3475 -24 17.5075 -24 1.1875 C-19 1.1875 -14 1.1875 -9 1.1875 C-5.79226388 0.11825463 -3.37015182 0.02065044 0 0 Z " fill="#056839" transform="translate(177,359.8125)"/>
<path d="M0 0 C6.27 0 12.54 0 19 0 C19 15.84 19 31.68 19 48 C15.04 48 11.08 48 7 48 C7 35.13 7 22.26 7 9 C4.69 9 2.38 9 0 9 C0 6.03 0 3.06 0 0 Z " fill="#056839" transform="translate(273,361)"/>
<path d="M0 0 C6.27 0 12.54 0 19 0 C19 15.84 19 31.68 19 48 C15.04 48 11.08 48 7 48 C7 35.13 7 22.26 7 9 C4.69 9 2.38 9 0 9 C0 6.03 0 3.06 0 0 Z " fill="#056839" transform="translate(76,361)"/>
<path d="M0 0 C4.00554271 3.61475806 7.14562244 6.7861259 7.80078125 12.328125 C7.99781989 18.26002504 7.06303966 21.48743182 3.5625 26.3125 C-1.63931717 31.01890601 -4.80581846 31.60816684 -11.67578125 31.52734375 C-16.58989653 31.14505755 -19.35101156 29.45934891 -22.6875 25.9375 C-25.96895681 21.01531478 -27.04367758 17.27324619 -26.4375 11.3125 C-24.61072864 6.03954914 -22.21229176 2.37326395 -17.4375 -0.6875 C-11.62364524 -2.62545159 -5.51641224 -2.70805692 0 0 Z M-19.4375 5.3125 C-22.6986776 8.879413 -22.96771151 12.4283492 -22.78125 17.09765625 C-22.22258221 20.69725441 -20.89556289 22.66535535 -18.4375 25.3125 C-14.54806859 27.58745045 -12.19921828 28.33789061 -7.6875 28.1875 C-4.56161867 27.34591657 -3.32506401 26.86626307 -1.4375 24.3125 C-2.7575 24.3125 -4.0775 24.3125 -5.4375 24.3125 C-5.72625 23.549375 -6.015 22.78625 -6.3125 22 C-7.40019013 19.16220692 -7.40019013 19.16220692 -9.4375 16.3125 C-10.0975 16.3125 -10.7575 16.3125 -11.4375 16.3125 C-11.4375 18.9525 -11.4375 21.5925 -11.4375 24.3125 C-12.7575 24.3125 -14.0775 24.3125 -15.4375 24.3125 C-15.4375 17.7125 -15.4375 11.1125 -15.4375 4.3125 C-5.6875 5.1875 -5.6875 5.1875 -3.4375 6.3125 C-3.15178571 13.74107143 -3.15178571 13.74107143 -5.4375 17.3125 C-2.9625 20.7775 -2.9625 20.7775 -0.4375 24.3125 C2.9558379 20.9191621 3.72636476 19.66236964 3.875 15.0625 C3.79997919 10.39620548 2.80966887 7.80945109 -0.4375 4.3125 C-7.8600206 0.33614968 -12.61649596 0.90998359 -19.4375 5.3125 Z M-11.4375 7.3125 C-11.4375 9.2925 -11.4375 11.2725 -11.4375 13.3125 C-9.7875 12.9825 -8.1375 12.6525 -6.4375 12.3125 C-6.4375 10.9925 -6.4375 9.6725 -6.4375 8.3125 C-8.0875 7.9825 -9.7375 7.6525 -11.4375 7.3125 Z " fill="#056839" transform="translate(379.4375,341.6875)"/>
<path d="M0 0 C1.17369141 -0.00386719 1.17369141 -0.00386719 2.37109375 -0.0078125 C4.5625 0.125 4.5625 0.125 7.5625 1.125 C8.2225 0.795 8.8825 0.465 9.5625 0.125 C13.94186569 -0.39071681 17.41296515 -0.70841277 21.0625 1.9375 C23.34116594 5.26055449 23.6851436 7.86995513 23.66015625 11.79296875 C23.65693359 12.68564453 23.65371094 13.57832031 23.65039062 14.49804688 C23.63782227 15.89120117 23.63782227 15.89120117 23.625 17.3125 C23.62048828 18.25287109 23.61597656 19.19324219 23.61132812 20.16210938 C23.59954626 22.48313712 23.58309558 24.80403644 23.5625 27.125 C21.5825 27.125 19.6025 27.125 17.5625 27.125 C17.54268066 26.52961426 17.52286133 25.93422852 17.50244141 25.32080078 C17.40733874 22.63007847 17.29760158 19.94014852 17.1875 17.25 C17.1565625 16.31285156 17.125625 15.37570312 17.09375 14.41015625 C17.05507812 13.51425781 17.01640625 12.61835938 16.9765625 11.6953125 C16.9451416 10.86789551 16.9137207 10.04047852 16.88134766 9.18798828 C16.73650863 6.90513915 16.73650863 6.90513915 14.5625 5.125 C12.9125 5.455 11.2625 5.785 9.5625 6.125 C9.2325 13.055 8.9025 19.985 8.5625 27.125 C6.5825 27.125 4.6025 27.125 2.5625 27.125 C2.2325 20.195 1.9025 13.265 1.5625 6.125 C-3.07258766 4.591813 -3.07258766 4.591813 -5.21801758 6.28442383 C-6.70347404 8.5264371 -6.85937956 9.89701088 -6.94921875 12.57421875 C-6.98466797 13.42177734 -7.02011719 14.26933594 -7.05664062 15.14257812 C-7.07919922 16.02365234 -7.10175781 16.90472656 -7.125 17.8125 C-7.15916016 18.70517578 -7.19332031 19.59785156 -7.22851562 20.51757812 C-7.31095648 22.71992671 -7.38011551 24.92187938 -7.4375 27.125 C-9.0875 27.125 -10.7375 27.125 -12.4375 27.125 C-12.4375 18.545 -12.4375 9.965 -12.4375 1.125 C-10.4575 1.125 -8.4775 1.125 -6.4375 1.125 C-4.08479407 -0.05135297 -2.616748 -0.00859359 0 0 Z " fill="#056839" transform="translate(235.4375,431.875)"/>
<path d="M0 0 C1.65 0.66 3.3 1.32 5 2 C4.4740625 2.7734375 4.4740625 2.7734375 3.9375 3.5625 C2.7237323 6.1029088 2.7237323 6.1029088 3.5625 9.375 C4.08243702 13.6830496 3.33857971 15.40860973 1 19 C-1.91506455 20.94337637 -2.82971692 21.27674667 -6.125 21.5625 C-9.77463966 21.56686899 -9.77463966 21.56686899 -11 23 C-10.18015625 22.95359375 -9.3603125 22.9071875 -8.515625 22.859375 C-6.89914063 22.80523437 -6.89914063 22.80523437 -5.25 22.75 C-3.64898437 22.68039062 -3.64898437 22.68039062 -2.015625 22.609375 C1 23 1 23 3.359375 24.828125 C5 27 5 27 5.5 30 C4.89445555 33.63326668 3.8441085 34.74144325 1 37 C-2.91270463 38.95635231 -7.7241978 38.3696659 -12 38 C-15.1875 36.5 -15.1875 36.5 -17 35 C-16.34 33.68 -15.68 32.36 -15 31 C-13.453125 31.5259375 -13.453125 31.5259375 -11.875 32.0625 C-8.0201036 32.99513623 -5.79827774 32.92640921 -2 32 C-1.67 31.01 -1.34 30.02 -1 29 C-5.09425259 27.94341869 -8.91746389 27.951456 -13.109375 28.0625 C-15 28 -15 28 -16 27 C-16.1875 24.0625 -16.1875 24.0625 -16 21 C-15.34 20.34 -14.68 19.68 -14 19 C-14.4846875 18.60554688 -14.969375 18.21109375 -15.46875 17.8046875 C-17.93964022 14.89256688 -17.53991863 12.13627193 -17.39453125 8.453125 C-17 6 -17 6 -15.1875 2.875 C-11.06159282 0.44799577 -8.025737 0.64554488 -3.328125 0.921875 C-2.55984375 0.94765625 -1.7915625 0.9734375 -1 1 C-0.67 0.67 -0.34 0.34 0 0 Z M-10.1875 6.625 C-12.30608219 8.91628536 -12.30608219 8.91628536 -12.0625 12.125 C-11.28211797 15.21309493 -11.28211797 15.21309493 -8.4375 16.375 C-7.633125 16.58125 -6.82875 16.7875 -6 17 C-3.49855724 14.88940767 -2.13723312 13.70331976 -1.5 10.4375 C-1.78916714 7.86245887 -1.78916714 7.86245887 -3.875 6.1875 C-6.8601449 4.51933079 -7.41653026 4.56656533 -10.1875 6.625 Z " fill="#056839" transform="translate(52,431)"/>
<path d="M0 0 C1.98 0 3.96 0 6 0 C6.0093457 0.82725586 6.01869141 1.65451172 6.02832031 2.50683594 C6.08200319 6.25516415 6.1656571 10.00224162 6.25 13.75 C6.26417969 15.05195313 6.27835938 16.35390625 6.29296875 17.6953125 C6.32519531 18.94570313 6.35742188 20.19609375 6.390625 21.484375 C6.41157227 22.63647461 6.43251953 23.78857422 6.45410156 24.97558594 C7.10759765 28.59611795 8.06000898 29.83992511 11 32 C14.6985004 31.85205998 16.35805573 31.64194427 19 29 C19.37296556 25.99027343 19.37296556 25.99027343 19.4140625 22.4609375 C19.45273437 21.15898437 19.49140625 19.85703125 19.53125 18.515625 C19.56270763 17.13542138 19.59395491 15.75521296 19.625 14.375 C19.66317934 12.98695459 19.70223105 11.59893289 19.7421875 10.2109375 C19.83672943 6.80742815 19.92227897 3.40392835 20 0 C21.98 0 23.96 0 26 0 C26.12422509 4.16249607 26.21462647 8.3239917 26.2746582 12.48779297 C26.29969925 13.90204682 26.33374342 15.31617257 26.37719727 16.72998047 C26.77476404 30.00403352 26.77476404 30.00403352 23.60546875 33.8984375 C19.10882877 37.52541248 15.66868363 37.38951791 9.99609375 37.35546875 C5.49219055 36.82110735 3.92336972 35.39742967 1 32 C-0.13917218 28.58248347 -0.11338481 25.96512063 -0.09765625 22.36328125 C-0.09443359 21.06455078 -0.09121094 19.76582031 -0.08789062 18.42773438 C-0.07953531 17.05598892 -0.07107037 15.68424413 -0.0625 14.3125 C-0.05748335 12.92903805 -0.05292073 11.54557437 -0.04882812 10.16210938 C-0.03702529 6.77469605 -0.02056019 3.38736967 0 0 Z " fill="#056839" transform="translate(3,423)"/>
<path d="M0 0 C1.98 0 3.96 0 6 0 C6 12.21 6 24.42 6 37 C-11 37 -11 37 -16 33 C-18.53907136 28.03726961 -18.32677598 23.29762693 -17 18 C-14.94954519 14.24083284 -13.56102976 12.37401984 -10 10 C-6.97670744 9.7389212 -4.04123758 9.91184819 -1 10 C-0.67 6.7 -0.34 3.4 0 0 Z M-8.625 15.4375 C-11.55301629 18.59667547 -11.75969037 20.61198499 -12.15234375 24.78125 C-11.97738378 27.32938495 -11.33662238 28.83795468 -10 31 C-8.28497767 32.44123112 -8.28497767 32.44123112 -6 33 C-3.99354629 32.70801606 -1.99199146 32.37826067 0 32 C0.08074203 29.37438891 0.1403623 26.75124324 0.1875 24.125 C0.21263672 23.37863281 0.23777344 22.63226563 0.26367188 21.86328125 C0.3298764 19.43778172 0.3298764 19.43778172 0 16 C-3.65835304 13.56109797 -4.77826455 13.33095439 -8.625 15.4375 Z " fill="#056839" transform="translate(342,422)"/>
<path d="M0 0 C1.98 0 3.96 0 6 0 C6 12.21 6 24.42 6 37 C-11 37 -11 37 -16 33 C-18.53907136 28.03726961 -18.32677598 23.29762693 -17 18 C-14.94954519 14.24083284 -13.56102976 12.37401984 -10 10 C-6.97670744 9.7389212 -4.04123758 9.91184819 -1 10 C-0.67 6.7 -0.34 3.4 0 0 Z M-8.625 15.4375 C-11.55301629 18.59667547 -11.75969037 20.61198499 -12.15234375 24.78125 C-11.97738378 27.32938495 -11.33662238 28.83795468 -10 31 C-8.28497767 32.44123112 -8.28497767 32.44123112 -6 33 C-3.99354629 32.70801606 -1.99199146 32.37826067 0 32 C0.08074203 29.37438891 0.1403623 26.75124324 0.1875 24.125 C0.21263672 23.37863281 0.23777344 22.63226563 0.26367188 21.86328125 C0.3298764 19.43778172 0.3298764 19.43778172 0 16 C-3.65835304 13.56109797 -4.77826455 13.33095439 -8.625 15.4375 Z " fill="#056839" transform="translate(130,422)"/>
<path d="M0 0 C2.79223958 1.59556548 4.48310114 2.56569125 5.58984375 5.63671875 C6.31282003 9.80243921 6.40161319 14.02735069 6.60546875 18.24414062 C6.77396599 21.37296007 7.00368883 24.01106648 8 27 C5.98177083 26.70703125 3.96354167 26.4140625 1.9453125 26.12109375 C-0.08140667 25.8315703 -0.08140667 25.8315703 -2 27 C-6.25561995 27.50114443 -9.80908635 27.69712018 -13.5625 25.5 C-15.588855 21.97590435 -15.82357998 18.97112327 -15 15 C-12.79259319 12.03141843 -11.51402627 11.17134209 -8 10 C-6.60560336 9.93334624 -5.20830125 9.91461801 -3.8125 9.9375 C-1.9253125 9.9684375 -1.9253125 9.9684375 0 10 C-0.63979849 7.96758273 -0.63979849 7.96758273 -2 6 C-6.14070449 4.38972603 -8.97849859 5.41010409 -13 7 C-13.33 5.35 -13.66 3.7 -14 2 C-9.44963816 -0.6272297 -5.13822613 -0.6817711 0 0 Z M-6.6875 14.125 C-9.21988288 15.81975241 -9.21988288 15.81975241 -9.8125 18.6875 C-9.874375 19.450625 -9.93625 20.21375 -10 21 C-7.24104365 23.29637779 -7.24104365 23.29637779 -4.4375 22.75 C-1.84999433 22.16191948 -1.84999433 22.16191948 0 20 C0.16681109 16.91652174 0.16681109 16.91652174 0 14 C-2.82652171 12.84845412 -3.81325108 12.92182604 -6.6875 14.125 Z " fill="#056839" transform="translate(156,432)"/>
<path d="M0 0 C2.79223958 1.59556548 4.48310114 2.56569125 5.58984375 5.63671875 C6.31282003 9.80243921 6.40161319 14.02735069 6.60546875 18.24414062 C6.77396599 21.37296007 7.00368883 24.01106648 8 27 C5.98177083 26.70703125 3.96354167 26.4140625 1.9453125 26.12109375 C-0.08140667 25.8315703 -0.08140667 25.8315703 -2 27 C-6.25561995 27.50114443 -9.80908635 27.69712018 -13.5625 25.5 C-15.588855 21.97590435 -15.82357998 18.97112327 -15 15 C-12.79259319 12.03141843 -11.51402627 11.17134209 -8 10 C-6.60560336 9.93334624 -5.20830125 9.91461801 -3.8125 9.9375 C-1.9253125 9.9684375 -1.9253125 9.9684375 0 10 C-0.63979849 7.96758273 -0.63979849 7.96758273 -2 6 C-6.14070449 4.38972603 -8.97849859 5.41010409 -13 7 C-13.33 5.35 -13.66 3.7 -14 2 C-9.44963816 -0.6272297 -5.13822613 -0.6817711 0 0 Z M-6.6875 14.125 C-9.21988288 15.81975241 -9.21988288 15.81975241 -9.8125 18.6875 C-9.874375 19.450625 -9.93625 20.21375 -10 21 C-7.24104365 23.29637779 -7.24104365 23.29637779 -4.4375 22.75 C-1.84999433 22.16191948 -1.84999433 22.16191948 0 20 C0.16681109 16.91652174 0.16681109 16.91652174 0 14 C-2.82652171 12.84845412 -3.81325108 12.92182604 -6.6875 14.125 Z " fill="#056839" transform="translate(75,432)"/>
<path d="M0 0 C2.98990788 1.24579495 4.39265669 2.19020892 6.3125 4.75 C7 7 7 7 7 14 C0.73 14 -5.54 14 -12 14 C-11.01 16.31 -10.02 18.62 -9 21 C-4.7253113 22.26657443 -1.27993042 22.16725375 3 21 C3.66 21.99 4.32 22.98 5 24 C1.01227769 27.50209804 -2.0679279 27.61658607 -7.23046875 27.4921875 C-11.59166187 26.71713767 -14.32338366 24.45940036 -17 21 C-18.676194 15.97141801 -18.60642735 11.65969589 -16.8125 6.75 C-12.31337485 -0.07625884 -7.83024508 -1.06893148 0 0 Z M-9.75 6.375 C-12.21693046 8.67686401 -12.21693046 8.67686401 -12 11 C-7.38 11 -2.76 11 2 11 C0.52360997 5.93991361 0.52360997 5.93991361 -3 4 C-7.10105307 3.56425342 -7.10105307 3.56425342 -9.75 6.375 Z " fill="#056839" transform="translate(315,432)"/>
<path d="M0 0 C5.45905517 0.38993251 8.11850498 2.20476043 12 6 C15.36279505 9.92326089 15.44551539 13.57523452 15.296875 18.5546875 C14.89621451 21.85486472 13.83599306 24.2460104 12 27 C11.34 27.33 10.68 27.66 10 28 C9.67 27.01 9.34 26.02 9 25 C8.24203125 24.91621094 7.4840625 24.83242188 6.703125 24.74609375 C2.56394709 23.6036328 1.41743502 21.14384821 -0.76171875 17.61328125 C-2.72280492 13.4745852 -3.38143209 9.56129202 -3 5 C-1.5625 1.875 -1.5625 1.875 0 0 Z " fill="#F1592A" transform="translate(130,232)"/>
<path d="M0 0 C1.15628906 -0.04253906 1.15628906 -0.04253906 2.3359375 -0.0859375 C5.51632819 0.55448247 6.59423553 1.88147633 8.625 4.375 C9.07910156 6.94042969 9.07910156 6.94042969 9.015625 9.796875 C8.99628906 11.33408203 8.99628906 11.33408203 8.9765625 12.90234375 C8.94304687 13.96582031 8.90953125 15.02929688 8.875 16.125 C8.85695313 17.20394531 8.83890625 18.28289062 8.8203125 19.39453125 C8.77321415 22.05558788 8.707456 24.71484254 8.625 27.375 C6.975 27.375 5.325 27.375 3.625 27.375 C3.61041748 26.81514404 3.59583496 26.25528809 3.58081055 25.6784668 C3.50628648 23.13911863 3.40964419 20.60107922 3.3125 18.0625 C3.28994141 17.18142578 3.26738281 16.30035156 3.24414062 15.39257812 C3.20869141 14.54501953 3.17324219 13.69746094 3.13671875 12.82421875 C3.11053467 12.04393311 3.08435059 11.26364746 3.05737305 10.4597168 C2.5318329 7.92578834 1.5841474 7.00572223 -0.375 5.375 C-2.355 6.035 -4.335 6.695 -6.375 7.375 C-6.705 13.975 -7.035 20.575 -7.375 27.375 C-9.025 27.375 -10.675 27.375 -12.375 27.375 C-12.375 18.795 -12.375 10.215 -12.375 1.375 C-9.405 1.87 -9.405 1.87 -6.375 2.375 C-3.98213116 -0.01786884 -3.28052906 0.05449384 0 0 Z " fill="#056839" transform="translate(99.375,431.625)"/>
<path d="M0 0 C1.98 0 3.96 0 6 0 C6 10.56 6 21.12 6 32 C11.28 32 16.56 32 22 32 C22 33.32 22 34.64 22 36 C14.74 36 7.48 36 0 36 C0 24.12 0 12.24 0 0 Z " fill="#056839" transform="translate(183,423)"/>
<path d="M0 0 C0 2.31 0 4.62 0 7 C2.31 7 4.62 7 7 7 C7 8.32 7 9.64 7 11 C4.69 11 2.38 11 0 11 C0.33 16.61 0.66 22.22 1 28 C3.64 28 6.28 28 9 28 C9 29.65 9 31.3 9 33 C7.41753293 33.08153933 5.83383727 33.13943557 4.25 33.1875 C2.92742187 33.23970703 2.92742187 33.23970703 1.578125 33.29296875 C-1.72567689 32.91753672 -2.88928412 32.61885118 -5 30 C-5.49471141 26.759016 -5.37433434 23.58105864 -5.25 20.3125 C-5.23195313 19.41982422 -5.21390625 18.52714844 -5.1953125 17.60742188 C-5.14817759 15.40386496 -5.08240657 13.20247399 -5 11 C-6.32 11 -7.64 11 -9 11 C-9 9.68 -9 8.36 -9 7 C-7.68 7 -6.36 7 -5 7 C-5 5.02 -5 3.04 -5 1 C-3 0 -3 0 0 0 Z " fill="#056839" transform="translate(286,426)"/>
<path d="M0 0 C3.3 0 6.6 0 10 0 C10 8.58 10 17.16 10 26 C8.02 26 6.04 26 4 26 C4 18.74 4 11.48 4 4 C2.68 4 1.36 4 0 4 C0 2.68 0 1.36 0 0 Z " fill="#056839" transform="translate(262,433)"/>
<path d="M0 0 C3.3 0 6.6 0 10 0 C10 8.58 10 17.16 10 26 C8.02 26 6.04 26 4 26 C4 18.74 4 11.48 4 4 C2.68 4 1.36 4 0 4 C0 2.68 0 1.36 0 0 Z " fill="#056839" transform="translate(207,433)"/>
<path d="M0 0 C2.459636 1.55776947 2.89388592 2.68165777 3.8125 5.4375 C4.02578982 8.35246093 3.62661237 9.60288704 2 12 C-1.04983996 13.52491998 -3.6423369 13.23562548 -7 13 C-8.9375 11.9375 -8.9375 11.9375 -10 10 C-10.36528977 6.5906288 -10.6140629 4.11976176 -8.9375 1.0625 C-5.88023824 -0.6140629 -3.4093712 -0.36528977 0 0 Z " fill="#056839" transform="translate(289,342)"/>
<path d="M0 0 C2.459636 1.55776947 2.89388592 2.68165777 3.8125 5.4375 C4.02578982 8.35246093 3.62661237 9.60288704 2 12 C-1.04983996 13.52491998 -3.6423369 13.23562548 -7 13 C-8.9375 11.9375 -8.9375 11.9375 -10 10 C-10.36528977 6.5906288 -10.6140629 4.11976176 -8.9375 1.0625 C-5.88023824 -0.6140629 -3.4093712 -0.36528977 0 0 Z " fill="#056839" transform="translate(92,342)"/>
<path d="M0 0 C2.64 0 5.28 0 8 0 C8.33 0.99 8.66 1.98 9 3 C8.67 3.66 8.34 4.32 8 5 C1.25 5.125 1.25 5.125 -1 4 C-0.67 2.68 -0.34 1.36 0 0 Z " fill="#F1592A" transform="translate(79,318)"/>
<path d="M0 0 C2.05078125 0.03255208 4.1015625 0.06510417 6.15234375 0.09765625 C5.82234375 1.74765625 5.49234375 3.39765625 5.15234375 5.09765625 C2.84234375 5.09765625 0.53234375 5.09765625 -1.84765625 5.09765625 C-2.41015625 3.16015625 -2.41015625 3.16015625 -2.84765625 1.09765625 C-1.84765625 0.09765625 -1.84765625 0.09765625 0 0 Z " fill="#F1592A" transform="translate(299.84765625,317.90234375)"/>
<path d="M0 0 C1.134375 0.020625 2.26875 0.04125 3.4375 0.0625 C4 2 4 2 4.4375 4.0625 C3.4375 5.0625 3.4375 5.0625 -0.125 5.125 C-1.259375 5.104375 -2.39375 5.08375 -3.5625 5.0625 C-4.125 3.125 -4.125 3.125 -4.5625 1.0625 C-3.5625 0.0625 -3.5625 0.0625 0 0 Z " fill="#F1592A" transform="translate(311.5625,317.9375)"/>
<path d="M0 0 C1.134375 0.020625 2.26875 0.04125 3.4375 0.0625 C4 2 4 2 4.4375 4.0625 C3.4375 5.0625 3.4375 5.0625 -0.125 5.125 C-1.259375 5.104375 -2.39375 5.08375 -3.5625 5.0625 C-4.125 3.125 -4.125 3.125 -4.5625 1.0625 C-3.5625 0.0625 -3.5625 0.0625 0 0 Z " fill="#F1592A" transform="translate(291.5625,317.9375)"/>
<path d="M0 0 C1.134375 0.020625 2.26875 0.04125 3.4375 0.0625 C4 2 4 2 4.4375 4.0625 C3.4375 5.0625 3.4375 5.0625 -0.125 5.125 C-1.259375 5.104375 -2.39375 5.08375 -3.5625 5.0625 C-4.125 3.125 -4.125 3.125 -4.5625 1.0625 C-3.5625 0.0625 -3.5625 0.0625 0 0 Z " fill="#F1592A" transform="translate(281.5625,317.9375)"/>
<path d="M0 0 C1.134375 0.020625 2.26875 0.04125 3.4375 0.0625 C4 2 4 2 4.4375 4.0625 C3.4375 5.0625 3.4375 5.0625 -0.125 5.125 C-1.259375 5.104375 -2.39375 5.08375 -3.5625 5.0625 C-4.125 3.125 -4.125 3.125 -4.5625 1.0625 C-3.5625 0.0625 -3.5625 0.0625 0 0 Z " fill="#F1592A" transform="translate(271.5625,317.9375)"/>
<path d="M0 0 C2.31 0 4.62 0 7 0 C7.5625 1.9375 7.5625 1.9375 8 4 C7 5 7 5 4.0625 5.125 C1 5 1 5 -1 4 C-0.67 2.68 -0.34 1.36 0 0 Z " fill="#F1592A" transform="translate(318,318)"/>
<path d="M0 0 C2.31 0 4.62 0 7 0 C7 1.65 7 3.3 7 5 C4.36 5 1.72 5 -1 5 C-0.67 3.35 -0.34 1.7 0 0 Z " fill="#F1592A" transform="translate(90,318)"/>
<path d="M0 0 C2.64 0 5.28 0 8 0 C7.67 1.65 7.34 3.3 7 5 C5.02 5 3.04 5 1 5 C0.67 3.35 0.34 1.7 0 0 Z " fill="#F1592A" transform="translate(69,318)"/>
<path d="M0 0 C2.64 0 5.28 0 8 0 C7.67 1.65 7.34 3.3 7 5 C5.02 5 3.04 5 1 5 C0.67 3.35 0.34 1.7 0 0 Z " fill="#F1592A" transform="translate(59,318)"/>
<path d="M0 0 C2.64 0 5.28 0 8 0 C7.67 1.65 7.34 3.3 7 5 C5.02 5 3.04 5 1 5 C0.67 3.35 0.34 1.7 0 0 Z " fill="#F1592A" transform="translate(49,318)"/>
<path d="M0 0 C2.64 0 5.28 0 8 0 C7.67 1.65 7.34 3.3 7 5 C5.02 5 3.04 5 1 5 C0.67 3.35 0.34 1.7 0 0 Z " fill="#F1592A" transform="translate(39,318)"/>
<path d="M0 0 C2.33944736 0.28730055 4.6739143 0.61936779 7 1 C6.67 2.32 6.34 3.64 6 5 C4.02 5 2.04 5 0 5 C-0.5625 3.0625 -0.5625 3.0625 -1 1 C-0.67 0.67 -0.34 0.34 0 0 Z " fill="#F1592A" transform="translate(329,318)"/>
<path d="M0 0 C2.31 0 4.62 0 7 0 C7.33 1.32 7.66 2.64 8 4 C5.03 4 2.06 4 -1 4 C-0.67 2.68 -0.34 1.36 0 0 Z " fill="#F1592A" transform="translate(258,318)"/>
<path d="M0 0 C0.33 1.32 0.66 2.64 1 4 C-2.37817425 4.84454356 -4.67465243 5.10844919 -8 4 C-7.67 3.01 -7.34 2.02 -7 1 C-4.53721199 -0.231394 -2.7204945 -0.07159196 0 0 Z " fill="#F1592A" transform="translate(106,318)"/>
<path d="M0 0 C2.97 0 5.94 0 9 0 C8.67 1.32 8.34 2.64 8 4 C5.69 4 3.38 4 1 4 C0.67 2.68 0.34 1.36 0 0 Z " fill="#F1592A" transform="translate(337,319)"/>
<path d="M0 0 C1.65 0.33 3.3 0.66 5 1 C4.67 2.65 4.34 4.3 4 6 C2.35 5.67 0.7 5.34 -1 5 C-0.67 3.35 -0.34 1.7 0 0 Z " fill="#056839" transform="translate(267,423)"/>
<path d="M0 0 C1.65 0.33 3.3 0.66 5 1 C4.67 2.65 4.34 4.3 4 6 C2.35 5.67 0.7 5.34 -1 5 C-0.67 3.35 -0.34 1.7 0 0 Z " fill="#056839" transform="translate(212,423)"/>
<path d="M0 0 C1.98 0 3.96 0 6 0 C6.33 1.32 6.66 2.64 7 4 C4.36 4 1.72 4 -1 4 C-0.67 2.68 -0.34 1.36 0 0 Z " fill="#F1592A" transform="translate(30,318)"/>
<path d="M0 0 C1.98 0 3.96 0 6 0 C6 1.32 6 2.64 6 4 C3.69 4 1.38 4 -1 4 C-0.67 2.68 -0.34 1.36 0 0 Z " fill="#F1592A" transform="translate(20,318)"/>
<path d="M0 0 C2.64 0 5.28 0 8 0 C7.67 0.99 7.34 1.98 7 3 C4.69 3 2.38 3 0 3 C0 2.01 0 1.02 0 0 Z " fill="#F1592A" transform="translate(109,319)"/>
<path d="M0 0 C2.64 0 5.28 0 8 0 C7.67 0.99 7.34 1.98 7 3 C5.02 3 3.04 3 1 3 C0.67 2.01 0.34 1.02 0 0 Z " fill="#F1592A" transform="translate(347,319)"/>
<path d="M0 0 C2.31 0 4.62 0 7 0 C7 0.99 7 1.98 7 3 C4.69 3 2.38 3 0 3 C0 2.01 0 1.02 0 0 Z " fill="#F1592A" transform="translate(248,319)"/>
<path d="M0 0 C2.31 0 4.62 0 7 0 C7 0.99 7 1.98 7 3 C4.69 3 2.38 3 0 3 C0 2.01 0 1.02 0 0 Z " fill="#F1592A" transform="translate(9,319)"/>
<path d="M0 0 C1.134375 0.020625 2.26875 0.04125 3.4375 0.0625 C3.4375 0.7225 3.4375 1.3825 3.4375 2.0625 C0.5625 2.6875 0.5625 2.6875 -2.5625 3.0625 C-3.2225 2.4025 -3.8825 1.7425 -4.5625 1.0625 C-3.5625 0.0625 -3.5625 0.0625 0 0 Z " fill="#F1592A" transform="translate(242.5625,318.9375)"/>
<path d="M0 0 C1.65 0 3.3 0 5 0 C5.33 0.99 5.66 1.98 6 3 C3.69 3 1.38 3 -1 3 C-0.67 2.01 -0.34 1.02 0 0 Z " fill="#F1592A" transform="translate(229,319)"/>
<path d="M0 0 C1.65 0 3.3 0 5 0 C5 0.99 5 1.98 5 3 C3.35 3 1.7 3 0 3 C0 2.01 0 1.02 0 0 Z " fill="#F1592A" transform="translate(130,319)"/>
<path d="M0 0 C1.65 0 3.3 0 5 0 C4.67 0.99 4.34 1.98 4 3 C2.35 2.67 0.7 2.34 -1 2 C-0.67 1.34 -0.34 0.68 0 0 Z " fill="#F1592A" transform="translate(1,319)"/>
<path d="M0 0 C2.64 0 5.28 0 8 0 C6 2 6 2 2.875 2.125 C1.451875 2.063125 1.451875 2.063125 0 2 C0 1.34 0 0.68 0 0 Z " fill="#F1592A" transform="translate(120,320)"/>
</svg>
