<?xml version="1.0" encoding="UTF-8"?>
<svg version="1.1" xmlns="http://www.w3.org/2000/svg" width="559" height="532">
<path d="M0 0 C1.49176758 -0.01836914 1.49176758 -0.01836914 3.01367188 -0.03710938 C12.4948593 -0.05578538 20.01281123 1.25876059 28.1875 6.125 C28.86184082 6.516875 29.53618164 6.90875 30.23095703 7.3125 C32.39563857 8.58449339 34.54353447 9.88091627 36.6875 11.1875 C37.42194336 11.63367676 38.15638672 12.07985352 38.91308594 12.53955078 C47.92518417 18.06531743 56.05434632 23.8216552 63.6875 31.1875 C66.36432846 33.56690308 68.95594088 35.79358355 72.125 37.5 C88.22730604 48.10395764 96.16930927 73.07704695 100 91.0625 C101.13189886 96.65059336 101.9828167 102.16376176 102.421875 107.8515625 C103.19120779 114.6171656 104.26942202 122.62490802 109.6875 127.1875 C113.77723505 129.61578019 118.23574822 131.06049382 122.75 132.48828125 C151.62972594 141.62460458 181.77749179 162.0436389 196.6875 189.1875 C197.70780492 191.5243274 198.61201597 193.88328048 199.5 196.2734375 C200.98593853 199.91985245 202.76457093 203.37458488 204.5625 206.875 C215.6875 228.78245276 215.6875 228.78245276 215.6875 239.1875 C215.0275 239.8475 214.3675 240.5075 213.6875 241.1875 C213.32140625 240.33671875 212.9553125 239.4859375 212.578125 238.609375 C209.05006165 230.63375937 205.0256854 223.05614154 200.5625 215.5625 C200.06008789 214.71010742 199.55767578 213.85771484 199.04003906 212.97949219 C196.30924834 208.46408215 193.62193134 204.76054653 189.6875 201.1875 C188.42402021 199.97709601 187.16248439 198.76466122 185.90234375 197.55078125 C166.74959218 179.35812905 138.05544415 152.1875 109.6875 152.1875 C108.66718493 155.24844522 108.45998827 157.6279494 108.29296875 160.83984375 C105.16647518 215.44494884 105.16647518 215.44494884 94.6953125 237.046875 C93.50740099 239.57003589 92.54029002 242.13800149 91.5625 244.75 C83.23927094 266.59527505 74.08188262 287.81641389 62.25463867 307.99633789 C59.22105005 313.22332443 56.73118038 318.36352272 54.5859375 324.01098633 C53.42597958 326.82104743 51.88909819 329.14044689 50.0625 331.5625 C47.97273374 334.36406437 46.15330526 337.00916979 44.6875 340.1875 C43.6975 339.8575 42.7075 339.5275 41.6875 339.1875 C43.3943151 333.32032309 45.67606819 327.93070308 48.3125 322.4375 C52.16342949 314.39961809 55.71634411 306.26115198 59.19140625 298.0546875 C61.00334382 293.77594847 62.85111852 289.51424494 64.71484375 285.2578125 C71.516098 269.74095954 71.516098 269.74095954 77.4375 253.875 C77.67750732 253.18317627 77.91751465 252.49135254 78.16479492 251.77856445 C79.16511212 248.68565633 79.68683067 246.16570537 79.58666992 242.90429688 C79.69914899 238.75809506 80.73159416 235.95317853 82.19140625 232.08203125 C85.97455301 220.58496231 85.12267638 208.73308228 84.74731445 196.78393555 C84.6247151 192.86589519 84.54046639 188.94846362 84.46289062 185.02929688 C84.40325541 182.50255095 84.34148059 179.97585442 84.27734375 177.44921875 C84.25010727 176.2958049 84.22287079 175.14239105 84.19480896 173.95402527 C84.11285235 160.98022361 84.11285235 160.98022361 79.6875 149.1875 C55.50052567 143.68104073 25.40290505 161.13966943 5.6875 173.1875 C-9.11623291 182.80248733 -20.65565916 195.51160061 -30.09423828 210.29882812 C-31.20383074 212.01902998 -32.36312082 213.70691635 -33.52734375 215.390625 C-52.74955787 244.16860391 -55.72673877 284.98079359 -49.41796875 318.21484375 C-44.90200896 339.35364673 -34.7836512 358.47561505 -21.55078125 375.41796875 C-20.30752414 377.19461061 -19.52560292 378.88089306 -18.6875 380.875 C-16.66370831 385.18842043 -13.631587 388.45969892 -10.4375 391.9375 C-9.67832275 392.77027466 -9.67832275 392.77027466 -8.90380859 393.61987305 C-5.65663663 397.06667051 -2.32572608 399.6286583 1.6875 402.1875 C3.04527172 403.32563218 4.38149067 404.49032478 5.6875 405.6875 C8.09353489 407.84830441 10.45100917 409.77678525 13.1875 411.5 C14.0125 412.056875 14.8375 412.61375 15.6875 413.1875 C15.6875 413.8475 15.6875 414.5075 15.6875 415.1875 C9.58145661 414.74619594 5.46290413 412.73938828 0.25 409.625 C-0.48154297 409.20025391 -1.21308594 408.77550781 -1.96679688 408.33789062 C-3.75463758 407.29790486 -5.53442662 406.24409823 -7.3125 405.1875 C-7.3125 404.5275 -7.3125 403.8675 -7.3125 403.1875 C-7.89 403.125625 -8.4675 403.06375 -9.0625 403 C-11.3125 402.1875 -11.3125 402.1875 -13.0625 399.87890625 C-15.62739146 396.81083296 -18.09937883 395.29025403 -21.5625 393.3125 C-30.20137308 388.37304865 -36.78666307 382.2001879 -42.75 374.25 C-43.3063916 373.51273682 -43.8627832 372.77547363 -44.43603516 372.01586914 C-49.79000081 364.77558417 -54.28793322 357.23461725 -58.3125 349.1875 C-58.62380859 348.57148926 -58.93511719 347.95547852 -59.25585938 347.32080078 C-63.51936657 338.71878865 -66.5139899 329.81821625 -69.25 320.625 C-69.55695801 319.60148437 -69.86391602 318.57796875 -70.18017578 317.5234375 C-71.68191098 312.26779709 -72.80043339 307.65986067 -72.3125 302.1875 C-71.9825 301.8575 -71.6525 301.5275 -71.3125 301.1875 C-71.24886585 299.19109726 -71.25342134 297.19247701 -71.28515625 295.1953125 C-71.29893311 293.94161865 -71.31270996 292.6879248 -71.3269043 291.39624023 C-71.33523285 290.72938202 -71.3435614 290.0625238 -71.35214233 289.37545776 C-71.52937026 273.38022355 -71.03575983 257.89242634 -67.0078125 242.328125 C-66.25693119 238.93650382 -65.97956951 235.64740039 -65.6875 232.1875 C-63.64847431 216.00900112 -55.008666 201.02572463 -45.3125 188.1875 C-44.58289063 187.21683594 -43.85328125 186.24617187 -43.1015625 185.24609375 C-35.76489659 175.93620903 -27.25637664 167.47510721 -18.21484375 159.8203125 C-16.88703695 158.68063438 -15.58932199 157.50536341 -14.31640625 156.3046875 C9.84779034 133.69232005 43.44880041 125.6905905 75.6875 124.1875 C72.5615055 103.09870131 57.63051576 78.57963693 40.9375 65.1875 C39.53663323 64.16548399 38.12639044 63.15524932 36.6875 62.1875 C38.37642189 64.72088283 40.1718015 67.08120011 42.0637207 69.46240234 C51.59740397 81.55035302 62.30000342 96.94152179 61.14453125 113.171875 C60.28285785 116.97207566 58.96382903 118.08570402 55.6875 120.1875 C33.91225259 128.67811371 11.71326322 126.41501365 -9.5859375 117.875 C-22.63526652 111.44600506 -32.77504494 100.35394401 -41.17529297 88.74951172 C-42.14398962 87.41895759 -43.14853192 86.11462183 -44.16015625 84.81640625 C-52.66942832 73.5310596 -59.14811005 59.90179903 -64.25390625 46.75390625 C-65.37559978 44.03452378 -66.71893608 41.51982791 -68.125 38.9375 C-70.46219035 34.31505687 -71.18509483 31.33580952 -70.3125 26.1875 C-68.64876158 23.83531809 -67.59460318 22.8104399 -65.3125 21.1875 C-64.19681641 20.38892578 -64.19681641 20.38892578 -63.05859375 19.57421875 C-44.44786916 7.06537108 -22.40555725 0.01435334 0 0 Z " fill="#056839" transform="translate(180.3125,85.8125)"/>
<path d="M0 0 C4.08614558 2.78205657 5.77584674 5.73417166 6.71875 10.59375 C7.6369741 18.44966733 7.18223044 25.60527331 5.4375 33.3125 C3.03877694 44.11150507 2.47780043 58.43340129 6 69 C6.27915906 72.18241331 6.27756212 75.36917821 6.3125 78.5625 C6.34150391 79.41908203 6.37050781 80.27566406 6.40039062 81.15820312 C6.4570247 86.94794786 5.3746157 91.10056493 3.04516602 96.37133789 C1.11902062 101.21572178 0.32254254 106.33902974 -0.6875 111.4375 C-3.47100508 124.77034108 -7.60286067 137.42898194 -12.09936523 150.26660156 C-12.88054142 152.63744693 -13.52209846 154.97204603 -14.08203125 157.40234375 C-14.98377197 160.93639993 -16.19995779 163.68287411 -17.9375 166.875 C-19.877017 170.57350616 -21.33076005 173.87035923 -22.25 177.9375 C-25.40826715 189.4069965 -36.10204924 199.46377881 -46.09814453 205.20507812 C-51.00675665 207.92114228 -55.9850352 210.48669977 -61 213 C-61.33 212.01 -61.66 211.02 -62 210 C-60.46620188 208.55410731 -58.92256145 207.11865196 -57.375 205.6875 C-56.51648438 204.88699219 -55.65796875 204.08648437 -54.7734375 203.26171875 C-51.95871693 200.96633395 -49.23920591 199.61338169 -46 198 C-38.49553404 192.41176874 -32.99926478 187.57935087 -31.234375 178.01953125 C-31.15703125 177.35308594 -31.0796875 176.68664062 -31 176 C-30.34 176 -29.68 176 -29 176 C-28.89840576 175.26136719 -28.79681152 174.52273438 -28.69213867 173.76171875 C-27.60035479 166.49162744 -25.80141494 159.90097428 -23.3125 153 C-14.69399156 128.10823091 -4.3671713 97.18136443 -7.50390625 70.46484375 C-8.35416163 61.44150857 -8.10482436 52.36591983 -8.0625 43.3125 C-8.05747491 41.43554807 -8.05291379 39.55859484 -8.04882812 37.68164062 C-8.03790258 33.12106113 -8.02069357 28.56054521 -8 24 C-11.79308648 34.43913249 -12.52505451 45.35999117 -13.72680664 56.32788086 C-15.28112229 70.350653 -16.89722426 84.46773889 -23.75 97.0625 C-24.09289062 97.71750488 -24.43578125 98.37250977 -24.7890625 99.04736328 C-25.84206915 101.04144659 -26.91858482 103.02120865 -28 105 C-28.33580078 105.6285791 -28.67160156 106.2571582 -29.01757812 106.90478516 C-33.30105353 114.90801049 -38.06053748 122.1045281 -44 129 C-45.01109161 130.19474163 -46.02145752 131.39009765 -47.03125 132.5859375 C-49.9952933 136.08023718 -52.96239223 139.56928333 -56 143 C-56.639375 143.72574219 -57.27875 144.45148438 -57.9375 145.19921875 C-60.64520609 147.56333335 -63.50396877 148.90307694 -66.75 150.4375 C-71.41897036 152.67964386 -75.88919301 155.00833385 -80.15625 157.95703125 C-88.54504878 162.70238988 -98.97811815 162.00263127 -108.0625 159.75 C-112.78986293 158.26922308 -116.49855403 156.54871788 -119.09765625 152.13671875 C-120.87915222 147.91819799 -120.70292553 143.38711624 -119.41796875 139.0234375 C-116.10466575 131.67062809 -110.17149493 125.72898428 -105 119.6484375 C-98.32681017 111.50829645 -94.93140608 102.51940986 -94 92 C-94.33 91.34 -94.66 90.68 -95 90 C-108.62847698 91.91125543 -119.93875289 107.75253958 -128.95166016 117.08862305 C-139.84887984 128.34479483 -150.14266249 138.56272937 -165.34375 143.63671875 C-173.98281531 148.07059197 -177.8164171 159.5797768 -180.78417969 168.30566406 C-181.51991524 170.65282569 -182.21130444 173.0064984 -182.875 175.375 C-183.07802734 176.09913086 -183.28105469 176.82326172 -183.49023438 177.56933594 C-184.84116641 182.69493101 -185.51080254 187.72291247 -186 193 C-185.15405273 192.65219482 -185.15405273 192.65219482 -184.29101562 192.29736328 C-181.69627458 191.23428449 -179.09819608 190.17960487 -176.5 189.125 C-175.613125 188.76019531 -174.72625 188.39539063 -173.8125 188.01953125 C-164.02744685 184.06234064 -156.0396017 182.63610052 -145.4375 182.6875 C-144.28668945 182.69096436 -143.13587891 182.69442871 -141.95019531 182.69799805 C-130.96675381 182.83788004 -120.8432757 183.73944697 -111 189 C-111 189.99 -111 190.98 -111 192 C-110.12085938 192.26554688 -109.24171875 192.53109375 -108.3359375 192.8046875 C-95.44131425 197.42500918 -86.15747579 207.04939611 -80 219 C-79.58492187 219.804375 -79.16984375 220.60875 -78.7421875 221.4375 C-75.54911653 228.40420029 -74.48897277 235.71140469 -76.625 243.1875 C-82.97143035 257.24031007 -96.79743155 269.27245371 -110.8046875 275.18359375 C-126.75639125 280.95921062 -142.58980268 280.84610613 -159.07275391 278.14013672 C-165.22230956 277.1674619 -171.28034213 276.66438497 -177.5 276.4375 C-184.65102749 276.17546945 -191.75166576 275.75592777 -198.875 275.0625 C-199.68904297 274.98765381 -200.50308594 274.91280762 -201.34179688 274.83569336 C-206.10590324 274.35062614 -210.43569575 273.45449162 -215 272 C-215 270.35 -215 268.7 -215 267 C-211.04 266.01 -207.08 265.02 -203 264 C-204.65 263.01 -206.3 262.02 -208 261 C-218.07774565 254.51867706 -225.0573661 246.89228625 -228.5534668 235.1394043 C-231.028786 223.27979678 -230.7564867 207.39166686 -224 197 C-223.01 196.67 -222.02 196.34 -221 196 C-221.60110267 199.96260887 -222.45457056 203.71418468 -223.5625 207.5625 C-226.6934119 220.00903155 -225.53923159 231.15734692 -219.125 242.25 C-214.42400879 249.62410386 -208.98685162 256.3010973 -200.81640625 259.984375 C-199 261 -199 261 -198 264 C-197.34 264 -196.68 264 -196 264 C-196.66 261.69 -197.32 259.38 -198 257 C-196.35 257.33 -194.7 257.66 -193 258 C-193.54571811 253.41596786 -194.87043099 250.07395811 -197 246 C-197 245.34 -197 244.68 -197 244 C-192.41057692 244.49615385 -192.41057692 244.49615385 -190.33203125 247.046875 C-189.89246094 247.69140625 -189.45289063 248.3359375 -189 249 C-188.73445313 248.14535156 -188.46890625 247.29070312 -188.1953125 246.41015625 C-187.84210938 245.30542969 -187.48890625 244.20070313 -187.125 243.0625 C-186.77695313 241.96035156 -186.42890625 240.85820312 -186.0703125 239.72265625 C-185 237 -185 237 -183 236 C-182.94392578 237.80597656 -182.94392578 237.80597656 -182.88671875 239.6484375 C-182.82107072 241.22399011 -182.75462299 242.79950954 -182.6875 244.375 C-182.65366211 245.56609375 -182.65366211 245.56609375 -182.61914062 246.78125 C-182.52214925 248.86215581 -182.27005175 250.93441332 -182 253 C-181.01 253.66 -180.02 254.32 -179 255 C-179 254.01 -179 253.02 -179 252 C-178.34 252 -177.68 252 -177 252 C-176.34 254.31 -175.68 256.62 -175 259 C-174.01 258.34 -173.02 257.68 -172 257 C-171.875 263.75 -171.875 263.75 -173 266 C-171.68 265.67 -170.36 265.34 -169 265 C-169 265.99 -169 266.98 -169 268 C-168.13375 268.28875 -167.2675 268.5775 -166.375 268.875 C-164.3702373 269.54325423 -162.37774586 270.25455851 -160.421875 271.0546875 C-155.85418523 272.31653787 -151.59115884 272.29916167 -146.875 272.25 C-145.46831055 272.23876099 -145.46831055 272.23876099 -144.03320312 272.22729492 C-125.17059952 271.93521827 -109.61085121 266.65597829 -96 253.1875 C-94.46450173 251.57138807 -92.94641942 249.94173112 -91.4375 248.30078125 C-90 247 -90 247 -88 247 C-87.855625 246.13375 -87.71125 245.2675 -87.5625 244.375 C-87 241 -87 241 -86.25 238.1875 C-85.61316353 230.06783507 -90.23062365 223.21722274 -95 217 C-104.83159335 205.87477595 -118.08710369 199.93580624 -132.80957031 198.77929688 C-153.07639905 197.97108944 -170.68914198 200.14369647 -186.1875 214.375 C-190.38309379 218.32692221 -194.46933475 222.39656968 -198.4765625 226.5390625 C-200.61544405 228.59019507 -201.84480912 228.97930788 -204.8125 229.375 C-208 229 -208 229 -210.875 226.9375 C-213.4269351 223.40982501 -213.64347927 221.16521122 -213 217 C-211.80971781 213.10709922 -210.30348009 209.34860404 -208.8125 205.5625 C-205.53806877 196.91703173 -202.98246385 188.45720063 -201.25 179.375 C-197.85358945 161.66973008 -193.08259799 142.44490511 -178 131 C-174.87342043 129.08598048 -171.66843013 127.31879132 -168.37524414 125.70800781 C-155.8784762 119.32708477 -145.89509169 108.16178945 -136.1875 98.25 C-110.19223919 71.80336444 -110.19223919 71.80336444 -98.16601562 71.67773438 C-97.12477539 71.68256836 -97.12477539 71.68256836 -96.0625 71.6875 C-95.37220703 71.67138672 -94.68191406 71.65527344 -93.97070312 71.63867188 C-89.21912507 71.63416801 -86.00168966 72.44979026 -82 75 C-78.37520443 78.63239472 -75.25584208 82.75523744 -75 88 C-74.8453125 89.8871875 -74.8453125 89.8871875 -74.6875 91.8125 C-74.97168119 108.89178981 -83.1745833 123.32198621 -94 136 C-95.33816934 137.66278633 -96.67277662 139.32846368 -98 141 C-91.83474985 143.11839164 -85.04793645 140.36260688 -79.34375 137.8125 C-57.34788739 125.56163981 -42.78482446 98.75413549 -34 76 C-33.63519531 75.11570312 -33.27039063 74.23140625 -32.89453125 73.3203125 C-31.57669017 68.42876264 -31.42780158 63.54297373 -31.125 58.5 C-28.05377611 15.347881 -28.05377611 15.347881 -13 2 C-8.83621534 -0.5693195 -4.77102348 -0.80937005 0 0 Z " fill="#056839" transform="translate(431,252)"/>
<path d="M0 0 C7.98709054 0.86034577 15.63539124 2.25664699 23.375 4.375 C24.11089355 4.57182373 24.84678711 4.76864746 25.60498047 4.97143555 C43.46111776 10.03154561 61.09713598 23.76548518 70.4375 39.8125 C79.98156501 57.24635762 83.92807362 78.76587031 80.3828125 98.421875 C79.46354395 101.43186937 78.35101052 104.15716942 77 107 C76.72623535 107.58056152 76.4524707 108.16112305 76.17041016 108.75927734 C64.74517386 132.56959364 64.74517386 132.56959364 54 137 C44.41670416 138.56461973 32.79781943 132.34707618 25 127 C18.32366089 121.78919875 13.1915074 116.34334586 9 109 C8.35160156 107.89785156 7.70320312 106.79570313 7.03515625 105.66015625 C-1.74802021 90.28497689 -5.19729675 75.44838197 -5.1875 57.75 C-5.18808914 56.74206894 -5.18808914 56.74206894 -5.18869019 55.71377563 C-5.18216671 46.39700689 -4.76053774 37.28579872 -3.50390625 28.0546875 C-2.81908407 22.97134316 -2.60322809 17.86438267 -2.42993164 12.7409668 C-2.23000025 8.1674655 -1.39068006 4.32344487 0 0 Z " fill="#056839" transform="translate(242,0)"/>
<path d="M0 0 C2.70645336 3.72971518 2.16946297 7.1240423 1.671875 11.53125 C-2.16198173 31.32464988 -10.73478666 45.99819985 -27 58 C-27.79921875 58.67675781 -28.5984375 59.35351562 -29.421875 60.05078125 C-32.0860443 62.06505471 -34.45342218 63.18212933 -37.5625 64.375 C-41.81408578 66.06213721 -45.83663328 67.91627298 -49.875 70.0625 C-62.56665076 76.5419217 -75.49888996 78.20166734 -89.5324707 78.24023438 C-91.69194936 78.25002016 -93.85050646 78.2811318 -96.00976562 78.3125 C-97.38541106 78.31902377 -98.76106323 78.32427669 -100.13671875 78.328125 C-101.38155029 78.3374707 -102.62638184 78.34681641 -103.90893555 78.35644531 C-107 78 -107 78 -108.91552734 76.62841797 C-111.34250604 72.98412533 -109.78343629 68.05414582 -109 64 C-104.10869283 47.01222658 -88.32980645 31.42385724 -74 22 C-89.01863537 29.66371487 -100.4368116 39.87903786 -110.45629883 53.3996582 C-112.65490417 56.34576329 -114.8492952 58.908148 -117.625 61.3125 C-123.14431565 66.46386127 -125.87293678 74.26537359 -129 81 C-129.495 81.99 -129.495 81.99 -130 83 C-130.66 83 -131.32 83 -132 83 C-133.7032931 77.05891365 -134.38706748 71.67251549 -134.375 65.5 C-134.37338867 64.63068848 -134.37177734 63.76137695 -134.37011719 62.86572266 C-134.21365952 54.47683067 -132.57922302 46.95038848 -130 39 C-129.67644531 37.99839844 -129.35289062 36.99679688 -129.01953125 35.96484375 C-127.17009315 30.83925816 -125.19566245 27.61022118 -121 24 C-119.78363814 22.79974889 -118.575726 21.59089307 -117.375 20.375 C-115.25 18.25 -113.125 16.125 -111 14 C-110.22398437 13.20335937 -109.44796875 12.40671875 -108.6484375 11.5859375 C-82.15817019 -14.27919076 -31.2560033 -21.5117275 0 0 Z " fill="#056839" transform="translate(425,126)"/>
<path d="M0 0 C6.61146878 5.98774531 12.38052975 15.37457939 12.87133789 24.48144531 C12.86610107 25.21459961 12.86086426 25.94775391 12.85546875 26.703125 C12.85224609 27.50234375 12.84902344 28.3015625 12.84570312 29.125 C12.83313477 30.3625 12.83313477 30.3625 12.8203125 31.625 C12.81580078 32.46546875 12.81128906 33.3059375 12.80664062 34.171875 C12.79489211 36.23961401 12.77695772 38.30731624 12.7578125 40.375 C5.85472674 44.33319138 -0.458594 44.31964876 -8.2421875 43.375 C-21.93166985 39.03443242 -30.0419459 28.14206151 -37.2421875 16.375 C-37.2421875 15.715 -37.2421875 15.055 -37.2421875 14.375 C-37.8815625 14.25125 -38.5209375 14.1275 -39.1796875 14 C-40.200625 13.690625 -40.200625 13.690625 -41.2421875 13.375 C-42.62444766 10.61047967 -42.33744137 8.3288637 -42.3046875 5.25 C-42.29566406 4.15429688 -42.28664062 3.05859375 -42.27734375 1.9296875 C-42.26574219 1.08664062 -42.25414062 0.24359375 -42.2421875 -0.625 C-40.84940733 -1.27739158 -39.45279538 -1.92160552 -38.0546875 -2.5625 C-37.27738281 -2.92214844 -36.50007812 -3.28179687 -35.69921875 -3.65234375 C-24.56144181 -8.06141602 -9.74651057 -7.06367317 0 0 Z " fill="#056839" transform="translate(202.2421875,399.625)"/>
<path d="M0 0 C5.84731461 -0.74646569 9.02364512 0.66080018 13.78125 4.07421875 C18.65569583 8.30503177 23.73317679 13.73713337 24.2734375 20.34375 C24.55949712 28.68799782 24.51571344 36.14808556 19 43 C17.515 43.495 17.515 43.495 16 44 C16 38.39 16 32.78 16 27 C15.855625 28.60875 15.71125 30.2175 15.5625 31.875 C15.125 36.75 15.125 36.75 14 39 C11.75 39.375 11.75 39.375 9 39 C7.0625 36.5 7.0625 36.5 6.10546875 34.84375 C4.8495305 32.74904027 3.39349002 30.91190027 1.875 29 C-3.26570434 22.09380124 -3.77912933 15.45750528 -3 7 C-2.24367323 4.39001686 -1.30905933 2.39994211 0 0 Z " fill="#056839" transform="translate(204,371)"/>
<path d="M0 0 C0.91007812 0.00902344 1.82015625 0.01804687 2.7578125 0.02734375 C3.45648438 0.03894531 4.15515625 0.05054688 4.875 0.0625 C5.9375 1.875 5.9375 1.875 6.875 4.0625 C6.545 5.0525 6.215 6.0425 5.875 7.0625 C3.89590602 7.08936553 1.91671029 7.10883375 -0.0625 7.125 C-1.16464844 7.13660156 -2.26679688 7.14820313 -3.40234375 7.16015625 C-6.125 7.0625 -6.125 7.0625 -7.125 6.0625 C-7.16563832 4.39632885 -7.167721 2.72861905 -7.125 1.0625 C-4.60024538 -0.19987731 -2.81299534 -0.03606404 0 0 Z " fill="#056839" transform="translate(475.125,507.9375)"/>
<path d="M0 0 C-0.33 1.65 -0.66 3.3 -1 5 C-2.95803507 5.05389087 -4.91648909 5.09274217 -6.875 5.125 C-7.96554688 5.14820313 -9.05609375 5.17140625 -10.1796875 5.1953125 C-13 5 -13 5 -15 3 C-14.625 0.875 -14.625 0.875 -14 -1 C-8.51053913 -2.12029814 -5.16569441 -1.79217969 0 0 Z " fill="#056839" transform="translate(138,510)"/>
<path d="M0 0 C0.7940625 -0.01417969 1.588125 -0.02835937 2.40625 -0.04296875 C4.5 0.1875 4.5 0.1875 6.5 2.1875 C6.125 4.8125 6.125 4.8125 5.5 7.1875 C3.68757948 7.21437279 1.87504767 7.23383715 0.0625 7.25 C-0.94683594 7.26160156 -1.95617187 7.27320313 -2.99609375 7.28515625 C-5.5 7.1875 -5.5 7.1875 -6.5 6.1875 C-6.54063832 4.52132885 -6.542721 2.85361905 -6.5 1.1875 C-4.14653604 0.01076802 -2.6193967 0.02126134 0 0 Z " fill="#056839" transform="translate(115.5,507.8125)"/>
<path d="M0 0 C0.7940625 0.01417969 1.588125 0.02835937 2.40625 0.04296875 C3.59734375 0.05263672 3.59734375 0.05263672 4.8125 0.0625 C6.90625 0.23046875 6.90625 0.23046875 8.90625 1.23046875 C8.948971 2.8965878 8.94688832 4.5642976 8.90625 6.23046875 C7.90625 7.23046875 7.90625 7.23046875 5.40234375 7.328125 C3.88833984 7.31072266 3.88833984 7.31072266 2.34375 7.29296875 C1.33183594 7.28394531 0.31992188 7.27492188 -0.72265625 7.265625 C-1.50511719 7.25402344 -2.28757812 7.24242187 -3.09375 7.23046875 C-3.71875 4.85546875 -3.71875 4.85546875 -4.09375 2.23046875 C-2.09375 0.23046875 -2.09375 0.23046875 0 0 Z " fill="#056839" transform="translate(97.09375,507.76953125)"/>
<path d="M0 0 C0.7940625 0.01417969 1.588125 0.02835937 2.40625 0.04296875 C3.59734375 0.05263672 3.59734375 0.05263672 4.8125 0.0625 C6.90625 0.23046875 6.90625 0.23046875 8.90625 1.23046875 C8.948971 2.8965878 8.94688832 4.5642976 8.90625 6.23046875 C7.90625 7.23046875 7.90625 7.23046875 5.40234375 7.328125 C3.88833984 7.31072266 3.88833984 7.31072266 2.34375 7.29296875 C1.33183594 7.28394531 0.31992188 7.27492188 -0.72265625 7.265625 C-1.50511719 7.25402344 -2.28757812 7.24242187 -3.09375 7.23046875 C-3.71875 4.85546875 -3.71875 4.85546875 -4.09375 2.23046875 C-2.09375 0.23046875 -2.09375 0.23046875 0 0 Z " fill="#056839" transform="translate(81.09375,507.76953125)"/>
<path d="M0 0 C0.66 0.33 1.32 0.66 2 1 C2.042721 2.66611905 2.04063832 4.33382885 2 6 C1 7 1 7 -1.50390625 7.09765625 C-3.01791016 7.08025391 -3.01791016 7.08025391 -4.5625 7.0625 C-5.57441406 7.05347656 -6.58632812 7.04445313 -7.62890625 7.03515625 C-8.41136719 7.02355469 -9.19382813 7.01195312 -10 7 C-10.33 5.35 -10.66 3.7 -11 2 C-6.94641576 -0.70238949 -4.81689896 -0.22937614 0 0 Z " fill="#056839" transform="translate(72,508)"/>
<path d="M0 0 C0.80566406 0.00257813 1.61132812 0.00515625 2.44140625 0.0078125 C3.64603516 0.00394531 3.64603516 0.00394531 4.875 0 C7.00390625 0.1328125 7.00390625 0.1328125 9.00390625 1.1328125 C9.04662725 2.79893155 9.04454457 4.46664135 9.00390625 6.1328125 C7.33829226 7.79842649 5.3442792 7.30397195 3.06640625 7.3203125 C2.17050781 7.33449219 1.27460938 7.34867188 0.3515625 7.36328125 C-1.99609375 7.1328125 -1.99609375 7.1328125 -3.99609375 5.1328125 C-3.25117073 0.21632056 -3.25117073 0.21632056 0 0 Z " fill="#056839" transform="translate(502.99609375,507.8671875)"/>
<path d="M0 0 C0.042721 1.66611905 0.04063832 3.33382885 0 5 C-1 6 -1 6 -3.46875 6.1328125 C-4.96921875 6.12894531 -4.96921875 6.12894531 -6.5 6.125 C-7.5003125 6.12757813 -8.500625 6.13015625 -9.53125 6.1328125 C-12 6 -12 6 -13 5 C-13.04063832 3.33382885 -13.042721 1.66611905 -13 0 C-8.37078475 -1.0161692 -4.65537393 -0.83796731 0 0 Z " fill="#056839" transform="translate(497,509)"/>
<path d="M0 0 C0 1.98 0 3.96 0 6 C-3.96 6 -7.92 6 -12 6 C-12.33 4.35 -12.66 2.7 -13 1 C-8.23947038 -0.97387813 -5.03511899 -1.0070238 0 0 Z " fill="#056839" transform="translate(465,509)"/>
<path d="M0 0 C-0.33 1.65 -0.66 3.3 -1 5 C-4.96 5 -8.92 5 -13 5 C-13 3.02 -13 1.04 -13 -1 C-8.05632546 -2.20577428 -4.79137588 -1.6290678 0 0 Z " fill="#056839" transform="translate(450,510)"/>
<path d="M0 0 C0.042721 1.66611905 0.04063832 3.33382885 0 5 C-1 6 -1 6 -3.50390625 6.09765625 C-5.01791016 6.08025391 -5.01791016 6.08025391 -6.5625 6.0625 C-7.57441406 6.05347656 -8.58632813 6.04445313 -9.62890625 6.03515625 C-10.41136719 6.02355469 -11.19382812 6.01195312 -12 6 C-12.33 4.35 -12.66 2.7 -13 1 C-8.23947038 -0.97387813 -5.03511899 -1.0070238 0 0 Z " fill="#056839" transform="translate(434,509)"/>
<path d="M0 0 C0.91007812 0.10183594 1.82015625 0.20367187 2.7578125 0.30859375 C3.45648438 0.39238281 4.15515625 0.47617187 4.875 0.5625 C4.545 2.5425 4.215 4.5225 3.875 6.5625 C-0.67305635 6.74085515 -4.0044254 6.56035435 -8.125 4.5625 C-7.75 2.625 -7.75 2.625 -7.125 0.5625 C-4.50184968 -0.74907516 -2.89466564 -0.33399988 0 0 Z " fill="#056839" transform="translate(413.125,508.4375)"/>
<path d="M0 0 C1.65322266 0.01740234 1.65322266 0.01740234 3.33984375 0.03515625 C4.99693359 0.04869141 4.99693359 0.04869141 6.6875 0.0625 C7.54214844 0.07410156 8.39679688 0.08570313 9.27734375 0.09765625 C9.32006475 1.7637753 9.31798207 3.4314851 9.27734375 5.09765625 C8.27734375 6.09765625 8.27734375 6.09765625 5.7734375 6.1953125 C4.25943359 6.17791016 4.25943359 6.17791016 2.71484375 6.16015625 C1.70292969 6.15113281 0.69101563 6.14210938 -0.3515625 6.1328125 C-1.13402344 6.12121094 -1.91648438 6.10960937 -2.72265625 6.09765625 C-3.10484392 4.44150968 -3.43660727 2.77308601 -3.72265625 1.09765625 C-2.72265625 0.09765625 -2.72265625 0.09765625 0 0 Z " fill="#056839" transform="translate(143.72265625,508.90234375)"/>
<path d="M0 0 C0.625 1.875 0.625 1.875 1 4 C-1 6 -1 6 -3.12890625 6.23046875 C-3.93199219 6.21628906 -4.73507812 6.20210937 -5.5625 6.1875 C-6.36816406 6.18105469 -7.17382812 6.17460938 -8.00390625 6.16796875 C-10 6 -10 6 -11 5 C-11.04063832 3.33382885 -11.042721 1.66611905 -11 0 C-6.94952424 -1.35015859 -4.2079832 -0.62084998 0 0 Z " fill="#056839" transform="translate(527,509)"/>
<path d="M0 0 C0.89847656 0.00257813 1.79695312 0.00515625 2.72265625 0.0078125 C3.61855469 0.00523437 4.51445313 0.00265625 5.4375 0 C7.78515625 0.1328125 7.78515625 0.1328125 9.78515625 1.1328125 C9.12515625 2.7828125 8.46515625 4.4328125 7.78515625 6.1328125 C4.48515625 6.1328125 1.18515625 6.1328125 -2.21484375 6.1328125 C-2.59703142 4.47666593 -2.92879477 2.80824226 -3.21484375 1.1328125 C-2.21484375 0.1328125 -2.21484375 0.1328125 0 0 Z " fill="#056839" transform="translate(534.21484375,508.8671875)"/>
<path d="M0 0 C0.33 1.65 0.66 3.3 1 5 C-3.27999354 7.13999677 -8.49048355 6.09321611 -13 5 C-12.375 3.125 -12.375 3.125 -11 1 C-6.96362635 -0.88364104 -4.27242501 -1.25659559 0 0 Z " fill="#056839" transform="translate(168,509)"/>
<path d="M0 0 C3.63 0 7.26 0 11 0 C11 1.65 11 3.3 11 5 C6.6835078 5.76173392 3.25566547 6.16063604 -1 5 C-0.67 3.35 -0.34 1.7 0 0 Z " fill="#056839" transform="translate(47,509)"/>
<path d="M0 0 C3.63 0 7.26 0 11 0 C11 1.65 11 3.3 11 5 C7.37 5 3.74 5 0 5 C0 3.35 0 1.7 0 0 Z " fill="#056839" transform="translate(31,509)"/>
<path d="M0 0 C0.33 1.65 0.66 3.3 1 5 C-0.62490954 5.02698189 -2.24994633 5.04638757 -3.875 5.0625 C-5.23238281 5.07990234 -5.23238281 5.07990234 -6.6171875 5.09765625 C-9 5 -9 5 -11 4 C-10.67 3.01 -10.34 2.02 -10 1 C-6.76421296 -0.31828361 -3.44785988 -0.07836045 0 0 Z " fill="#056839" transform="translate(400,509)"/>
<path d="M0 0 C3.96 0 7.92 0 12 0 C11.67 1.32 11.34 2.64 11 4 C7.37 4 3.74 4 0 4 C0 2.68 0 1.36 0 0 Z " fill="#056839" transform="translate(172,510)"/>
<path d="M0 0 C3.63 0 7.26 0 11 0 C11 0.99 11 1.98 11 3 C7.78548731 4.60725635 4.56387464 4.05748185 1 4 C0.67 2.68 0.34 1.36 0 0 Z " fill="#056839" transform="translate(547,510)"/>
<path d="M0 0 C3.63 0 7.26 0 11 0 C10.67 1.32 10.34 2.64 10 4 C7.03 4 4.06 4 1 4 C0.67 2.68 0.34 1.36 0 0 Z " fill="#056839" transform="translate(15,510)"/>
<path d="M0 0 C0.91007812 0.00902344 1.82015625 0.01804687 2.7578125 0.02734375 C3.45648438 0.03894531 4.15515625 0.05054688 4.875 0.0625 C4.875 0.7225 4.875 1.3825 4.875 2.0625 C1.40576119 4.37532587 -0.04705575 4.48728586 -4.125 4.0625 C-6 2.5625 -6 2.5625 -7.125 1.0625 C-4.60024538 -0.19987731 -2.81299534 -0.03606404 0 0 Z " fill="#056839" transform="translate(382.125,509.9375)"/>
<path d="M0 0 C1.051875 -0.02126953 1.051875 -0.02126953 2.125 -0.04296875 C4 0.1875 4 0.1875 6 2.1875 C2.00439392 5.01772097 -1.42737323 3.94960446 -6 3.1875 C-6 2.5275 -6 1.8675 -6 1.1875 C-3.77109005 0.07304502 -2.46944894 0.02269714 0 0 Z " fill="#056839" transform="translate(209,509.8125)"/>
<path d="M0 0 C3.375 -0.1875 3.375 -0.1875 7 0 C7.66 0.99 8.32 1.98 9 3 C5.78548731 4.60725635 2.56387464 4.05748185 -1 4 C-0.67 2.68 -0.34 1.36 0 0 Z " fill="#056839" transform="translate(361,510)"/>
<path d="M0 0 C3.96 0 7.92 0 12 0 C9 3 9 3 6.73828125 3.29296875 C5.93777344 3.25816406 5.13726562 3.22335937 4.3125 3.1875 C3.10013672 3.14689453 3.10013672 3.14689453 1.86328125 3.10546875 C0.94095703 3.05326172 0.94095703 3.05326172 0 3 C0 2.01 0 1.02 0 0 Z " fill="#056839" transform="translate(189,511)"/>
<path d="M0 0 C0 0.99 0 1.98 0 3 C-0.33 3.33 -0.66 3.66 -1 4 C-3.69082872 3.82364548 -6.32851446 3.38164079 -9 3 C-9 2.34 -9 1.68 -9 1 C-6.04335481 -0.4783226 -3.25770263 -0.06032783 0 0 Z " fill="#056839" transform="translate(9,510)"/>
</svg>
